<mxfile host="65bd71144e">
    <diagram id="ffboHtNIQQNh704SeMcM" name="Page-1">
        <mxGraphModel dx="606" dy="579" grid="1" gridSize="10" guides="1" tooltips="1" connect="1" arrows="1" fold="1" page="1" pageScale="1" pageWidth="827" pageHeight="1169" math="0" shadow="0">
            <root>
                <mxCell id="0"/>
                <mxCell id="1" parent="0"/>
                <mxCell id="2" value="Titus Diceman&amp;nbsp;&lt;br&gt;TEJ3M&lt;br&gt;Unit-4-15&lt;br&gt;&lt;br&gt;XOR Gate with chip&lt;br&gt;&lt;br&gt;A l B l Output&lt;br&gt;---------------&lt;br&gt;0 l 0 l 0&lt;br&gt;1 l 0 l 1&lt;br&gt;0 l 1 l 1&lt;br&gt;1 l 1 l 0&amp;nbsp;" style="text;html=1;align=left;verticalAlign=middle;resizable=0;points=[];autosize=1;strokeColor=none;fillColor=none;" parent="1" vertex="1">
                    <mxGeometry x="30" y="155" width="130" height="190" as="geometry"/>
                </mxCell>
                <mxCell id="10" style="edgeStyle=none;shape=connector;rounded=0;html=1;exitX=1;exitY=0.12;exitDx=0;exitDy=0;labelBackgroundColor=default;strokeColor=default;fontFamily=Helvetica;fontSize=11;fontColor=default;endArrow=oval;endFill=1;" parent="1" source="5" edge="1">
                    <mxGeometry relative="1" as="geometry">
                        <mxPoint x="650" y="181" as="targetPoint"/>
                    </mxGeometry>
                </mxCell>
                <mxCell id="11" style="edgeStyle=none;shape=connector;rounded=0;html=1;exitX=1;exitY=0.88;exitDx=0;exitDy=0;labelBackgroundColor=default;strokeColor=default;fontFamily=Helvetica;fontSize=11;fontColor=default;endArrow=oval;endFill=1;" parent="1" source="5" edge="1">
                    <mxGeometry relative="1" as="geometry">
                        <mxPoint x="558" y="434" as="targetPoint"/>
                    </mxGeometry>
                </mxCell>
                <mxCell id="5" value="" style="shape=mxgraph.electrical.electro-mechanical.twoWaySwitch;aspect=fixed;elSwitchState=2;fontFamily=Helvetica;fontSize=11;fontColor=default;" parent="1" vertex="1">
                    <mxGeometry x="482.95" y="178" width="75" height="26" as="geometry"/>
                </mxCell>
                <mxCell id="47" style="edgeStyle=none;html=1;exitX=0;exitY=0.57;exitDx=0;exitDy=0;exitPerimeter=0;entryX=1;entryY=0.5;entryDx=0;entryDy=0;entryPerimeter=0;endArrow=none;endFill=0;rounded=0;" edge="1" parent="1" source="6" target="45">
                    <mxGeometry relative="1" as="geometry">
                        <Array as="points">
                            <mxPoint x="210" y="434"/>
                        </Array>
                    </mxGeometry>
                </mxCell>
                <mxCell id="6" value="LED 1" style="verticalLabelPosition=bottom;shadow=0;dashed=0;align=center;html=1;verticalAlign=top;shape=mxgraph.electrical.opto_electronics.led_2;pointerEvents=1;fontFamily=Helvetica;fontSize=11;fontColor=default;" parent="1" vertex="1">
                    <mxGeometry x="340" y="394" width="100" height="70" as="geometry"/>
                </mxCell>
                <mxCell id="7" value="" style="pointerEvents=1;verticalLabelPosition=bottom;shadow=0;dashed=0;align=center;html=1;verticalAlign=top;shape=mxgraph.electrical.miscellaneous.batteryStack;fontFamily=Helvetica;fontSize=11;fontColor=default;direction=north;" parent="1" vertex="1">
                    <mxGeometry x="620" y="194" width="60" height="100" as="geometry"/>
                </mxCell>
                <mxCell id="19" style="edgeStyle=none;shape=connector;rounded=0;html=1;exitX=1;exitY=0.5;exitDx=0;exitDy=0;exitPerimeter=0;labelBackgroundColor=default;strokeColor=default;fontFamily=Helvetica;fontSize=11;fontColor=default;endArrow=none;endFill=0;entryX=0;entryY=0.5;entryDx=0;entryDy=0;" parent="1" source="18" target="7" edge="1">
                    <mxGeometry relative="1" as="geometry">
                        <mxPoint x="620" y="374.17647058823536" as="targetPoint"/>
                        <Array as="points">
                            <mxPoint x="650" y="434"/>
                            <mxPoint x="650" y="374"/>
                        </Array>
                    </mxGeometry>
                </mxCell>
                <mxCell id="18" value="220&amp;nbsp;Î©" style="pointerEvents=1;verticalLabelPosition=bottom;shadow=0;dashed=0;align=center;html=1;verticalAlign=top;shape=mxgraph.electrical.resistors.resistor_2;fontFamily=Helvetica;fontSize=11;fontColor=default;" parent="1" vertex="1">
                    <mxGeometry x="423" y="424" width="100" height="20" as="geometry"/>
                </mxCell>
                <mxCell id="20" value="-" style="text;html=1;align=center;verticalAlign=middle;resizable=0;points=[];autosize=1;strokeColor=none;fillColor=none;fontSize=11;fontFamily=Helvetica;fontColor=default;" parent="1" vertex="1">
                    <mxGeometry x="670" y="264" width="30" height="30" as="geometry"/>
                </mxCell>
                <mxCell id="21" value="+" style="text;html=1;align=center;verticalAlign=middle;resizable=0;points=[];autosize=1;strokeColor=none;fillColor=none;fontSize=11;fontFamily=Helvetica;fontColor=default;" parent="1" vertex="1">
                    <mxGeometry x="670" y="194" width="30" height="30" as="geometry"/>
                </mxCell>
                <mxCell id="22" value="5 V" style="text;html=1;align=center;verticalAlign=middle;resizable=0;points=[];autosize=1;strokeColor=none;fillColor=none;fontSize=11;fontFamily=Helvetica;fontColor=default;" parent="1" vertex="1">
                    <mxGeometry x="670" y="224" width="40" height="30" as="geometry"/>
                </mxCell>
                <mxCell id="24" value="Input A" style="text;html=1;align=center;verticalAlign=middle;resizable=0;points=[];autosize=1;strokeColor=none;fillColor=none;fontSize=11;fontFamily=Helvetica;fontColor=default;" parent="1" vertex="1">
                    <mxGeometry x="490.45" y="199" width="60" height="30" as="geometry"/>
                </mxCell>
                <mxCell id="34" style="edgeStyle=none;rounded=0;html=1;exitX=1;exitY=0.12;exitDx=0;exitDy=0;entryX=1;entryY=0.5;entryDx=0;entryDy=0;endArrow=none;endFill=0;" parent="1" source="33" target="7" edge="1">
                    <mxGeometry relative="1" as="geometry">
                        <mxPoint x="660" y="117" as="targetPoint"/>
                        <Array as="points">
                            <mxPoint x="650" y="120"/>
                        </Array>
                    </mxGeometry>
                </mxCell>
                <mxCell id="35" style="edgeStyle=none;rounded=0;html=1;exitX=1;exitY=0.88;exitDx=0;exitDy=0;endArrow=oval;endFill=1;" parent="1" source="33" edge="1">
                    <mxGeometry relative="1" as="geometry">
                        <mxPoint x="560" y="304" as="targetPoint"/>
                        <Array as="points">
                            <mxPoint x="600" y="140"/>
                            <mxPoint x="600" y="304"/>
                            <mxPoint x="560" y="304"/>
                        </Array>
                    </mxGeometry>
                </mxCell>
                <mxCell id="60" style="edgeStyle=none;rounded=0;html=1;exitX=0;exitY=0.5;exitDx=0;exitDy=0;endArrow=none;endFill=0;entryX=0;entryY=0.75;entryDx=0;entryDy=0;entryPerimeter=0;" edge="1" parent="1" source="33" target="49">
                    <mxGeometry relative="1" as="geometry">
                        <mxPoint x="370" y="129.9655172413793" as="targetPoint"/>
                        <Array as="points">
                            <mxPoint x="390" y="130"/>
                            <mxPoint x="390" y="214"/>
                        </Array>
                    </mxGeometry>
                </mxCell>
                <mxCell id="33" value="" style="shape=mxgraph.electrical.electro-mechanical.twoWaySwitch;aspect=fixed;elSwitchState=2;fontFamily=Helvetica;fontSize=11;fontColor=default;" parent="1" vertex="1">
                    <mxGeometry x="489.45" y="117" width="75" height="26" as="geometry"/>
                </mxCell>
                <mxCell id="39" value="Input B" style="text;html=1;align=center;verticalAlign=middle;resizable=0;points=[];autosize=1;strokeColor=none;fillColor=none;" parent="1" vertex="1">
                    <mxGeometry x="489.45" y="140" width="60" height="30" as="geometry"/>
                </mxCell>
                <mxCell id="55" style="edgeStyle=none;rounded=0;html=1;exitX=0;exitY=0.5;exitDx=0;exitDy=0;exitPerimeter=0;endArrow=none;endFill=0;" edge="1" parent="1" source="41">
                    <mxGeometry relative="1" as="geometry">
                        <mxPoint x="440" y="130" as="targetPoint"/>
                    </mxGeometry>
                </mxCell>
                <mxCell id="41" value="" style="verticalLabelPosition=bottom;shadow=0;dashed=0;align=center;html=1;verticalAlign=top;shape=mxgraph.electrical.logic_gates.inverter_2;direction=west;" parent="1" vertex="1">
                    <mxGeometry x="340" y="45" width="100" height="60" as="geometry"/>
                </mxCell>
                <mxCell id="56" style="edgeStyle=none;rounded=0;html=1;exitX=0;exitY=0.25;exitDx=0;exitDy=0;exitPerimeter=0;entryX=1;entryY=0.5;entryDx=0;entryDy=0;entryPerimeter=0;endArrow=none;endFill=0;" edge="1" parent="1" source="45" target="49">
                    <mxGeometry relative="1" as="geometry">
                        <Array as="points">
                            <mxPoint x="225" y="229"/>
                        </Array>
                    </mxGeometry>
                </mxCell>
                <mxCell id="57" style="edgeStyle=none;rounded=0;html=1;exitX=0;exitY=0.75;exitDx=0;exitDy=0;exitPerimeter=0;entryX=1;entryY=0.5;entryDx=0;entryDy=0;entryPerimeter=0;endArrow=none;endFill=0;" edge="1" parent="1" source="45" target="50">
                    <mxGeometry relative="1" as="geometry">
                        <Array as="points">
                            <mxPoint x="195" y="90"/>
                        </Array>
                    </mxGeometry>
                </mxCell>
                <mxCell id="45" value="" style="verticalLabelPosition=bottom;shadow=0;dashed=0;align=center;html=1;verticalAlign=top;shape=mxgraph.electrical.logic_gates.logic_gate;operation=or;direction=south;" parent="1" vertex="1">
                    <mxGeometry x="180" y="300" width="60" height="100" as="geometry"/>
                </mxCell>
                <mxCell id="54" style="edgeStyle=none;rounded=0;html=1;exitX=0;exitY=0.5;exitDx=0;exitDy=0;exitPerimeter=0;endArrow=none;endFill=0;" edge="1" parent="1" source="46">
                    <mxGeometry relative="1" as="geometry">
                        <mxPoint x="440" y="170" as="targetPoint"/>
                    </mxGeometry>
                </mxCell>
                <mxCell id="46" value="" style="verticalLabelPosition=bottom;shadow=0;dashed=0;align=center;html=1;verticalAlign=top;shape=mxgraph.electrical.logic_gates.inverter_2;direction=west;" vertex="1" parent="1">
                    <mxGeometry x="340" y="214" width="100" height="60" as="geometry"/>
                </mxCell>
                <mxCell id="49" value="" style="verticalLabelPosition=bottom;shadow=0;dashed=0;align=center;html=1;verticalAlign=top;shape=mxgraph.electrical.logic_gates.logic_gate;operation=and;direction=west;" vertex="1" parent="1">
                    <mxGeometry x="240" y="199" width="100" height="60" as="geometry"/>
                </mxCell>
                <mxCell id="58" style="edgeStyle=none;rounded=0;html=1;exitX=0;exitY=0.25;exitDx=0;exitDy=0;exitPerimeter=0;entryX=0;entryY=0.5;entryDx=0;entryDy=0;endArrow=none;endFill=0;" edge="1" parent="1" source="50" target="5">
                    <mxGeometry relative="1" as="geometry">
                        <Array as="points">
                            <mxPoint x="340" y="170"/>
                            <mxPoint x="483" y="170"/>
                        </Array>
                    </mxGeometry>
                </mxCell>
                <mxCell id="50" value="" style="verticalLabelPosition=bottom;shadow=0;dashed=0;align=center;html=1;verticalAlign=top;shape=mxgraph.electrical.logic_gates.logic_gate;operation=and;direction=west;" vertex="1" parent="1">
                    <mxGeometry x="240" y="60" width="100" height="60" as="geometry"/>
                </mxCell>
                <mxCell id="61" value="NOT B * A" style="text;html=1;align=center;verticalAlign=middle;resizable=0;points=[];autosize=1;strokeColor=none;fillColor=none;" vertex="1" parent="1">
                    <mxGeometry x="250" y="30" width="80" height="30" as="geometry"/>
                </mxCell>
                <mxCell id="62" value="NOT&amp;nbsp; A * B" style="text;html=1;align=center;verticalAlign=middle;resizable=0;points=[];autosize=1;strokeColor=none;fillColor=none;" vertex="1" parent="1">
                    <mxGeometry x="250" y="170" width="80" height="30" as="geometry"/>
                </mxCell>
            </root>
        </mxGraphModel>
    </diagram>
</mxfile>